<?xml version="1.0" encoding="UTF-8"?>
<svg id="Layer_1" data-name="Layer 1" xmlns="http://www.w3.org/2000/svg" viewBox="0 0 1254 1254">
  <defs>
    <style>
      .cls-1 {
        fill: #335562;
      }

      .cls-2 {
        fill: #7e2a27;
      }

      .cls-3 {
        fill: #a9957e;
      }

      .cls-4 {
        fill: #a8947d;
      }

      .cls-5 {
        fill: #7e2827;
      }

      .cls-6 {
        fill: #303031;
      }

      .cls-7 {
        fill: #f6f6f9;
      }

      .cls-8 {
        fill: #a9967e;
      }

      .cls-9 {
        fill: #ae9b82;
      }

      .cls-10 {
        fill: #385562;
      }

      .cls-11 {
        fill: #ac9983;
      }

      .cls-12 {
        fill: #dcc6ac;
      }

      .cls-13 {
        fill: #ae9a81;
      }

      .cls-14 {
        fill: #607385;
      }

      .cls-15 {
        fill: #282425;
      }

      .cls-16 {
        fill: #343334;
      }

      .cls-17 {
        fill: #d7c5a9;
      }

      .cls-18 {
        fill: #e8dac9;
      }

      .cls-19 {
        fill: #a79581;
      }

      .cls-20 {
        fill: #030303;
      }

      .cls-21 {
        fill: #e7dac7;
      }

      .cls-22 {
        fill: #a99780;
      }

      .cls-23 {
        fill: #dbbaa4;
      }

      .cls-24 {
        fill: #2a2727;
      }

      .cls-25 {
        fill: #ac9a84;
      }

      .cls-26 {
        fill: #fdfefd;
      }

      .cls-27 {
        fill: #aa9680;
      }

      .cls-28 {
        fill: #ab9880;
      }

      .cls-29 {
        fill: #d6c4a7;
      }

      .cls-30 {
        fill: #d5c4a7;
      }

      .cls-31 {
        fill: #d8c4a8;
      }

      .cls-32 {
        fill: #5baa9b;
      }

      .cls-33 {
        fill: #ac9881;
      }

      .cls-34 {
        fill: #a8957e;
      }

      .cls-35 {
        fill: #172944;
      }

      .cls-36 {
        fill: #7b2727;
      }

      .cls-37 {
        fill: #aa9780;
      }

      .cls-38 {
        fill: #ab977f;
      }

      .cls-39 {
        fill: #323231;
      }

      .cls-40 {
        fill: #7f2827;
      }

      .cls-41 {
        fill: #a8957f;
      }

      .cls-42 {
        fill: #7d2526;
      }

      .cls-43 {
        fill: #fdfdfc;
      }

      .cls-44 {
        fill: #fcfdfc;
      }

      .cls-45 {
        fill: #e6dac7;
      }

      .cls-46 {
        fill: #5eb19f;
      }

      .cls-47 {
        fill: #a99680;
      }

      .cls-48 {
        fill: #a9957d;
      }

      .cls-49 {
        fill: #b09b81;
      }

      .cls-50 {
        fill: #7e2927;
      }

      .cls-51 {
        fill: #192a44;
      }

      .cls-52 {
        fill: #617385;
      }

      .cls-53 {
        fill: #752124;
      }

      .cls-54 {
        fill: #292627;
      }

      .cls-55 {
        fill: #3a4a61;
      }

      .cls-56 {
        fill: #aa967f;
      }

      .cls-57 {
        fill: #e5d8c7;
      }

      .cls-58 {
        fill: #e5b9a3;
      }

      .cls-59 {
        fill: #ac9982;
      }

      .cls-60 {
        fill: #dac5a8;
      }

      .cls-61 {
        fill: #ad9881;
      }

      .cls-62 {
        fill: #607386;
      }

      .cls-63 {
        fill: #dcc2a8;
      }

      .cls-64 {
        fill: #314958;
      }

      .cls-65 {
        fill: #375662;
      }

      .cls-66 {
        fill: #5cb29f;
      }

      .cls-67 {
        fill: #3a5564;
      }

      .cls-68 {
        fill: #3a5965;
      }

      .cls-69 {
        fill: #ab9982;
      }

      .cls-70 {
        fill: #3b5e6b;
      }

      .cls-71 {
        fill: #3b4c62;
      }

      .cls-72 {
        fill: #292526;
      }

      .cls-73 {
        fill: #ab9881;
      }

      .cls-74 {
        fill: #3c4e65;
      }

      .cls-75 {
        fill: #192a45;
      }

      .cls-76 {
        fill: #182945;
      }

      .cls-77 {
        fill: #ac9880;
      }

      .cls-78 {
        fill: #3a3b3b;
      }

      .cls-79 {
        fill: #3a485f;
      }

      .cls-80 {
        fill: #182a45;
      }

      .cls-81 {
        fill: #d8c3a7;
      }

      .cls-82 {
        fill: #313131;
      }

      .cls-83 {
        fill: #182944;
      }

      .cls-84 {
        fill: #aa957f;
      }

      .cls-85 {
        fill: #d8c8ae;
      }

      .cls-86 {
        fill: #302f2f;
      }

      .cls-87 {
        fill: #39485f;
      }

      .cls-88 {
        fill: #5bae9d;
      }

      .cls-89 {
        fill: #a9967f;
      }

      .cls-90 {
        fill: #af9b84;
      }

      .cls-91 {
        fill: #34515d;
      }
    </style>
  </defs>
  <g id="Generative_Object" data-name="Generative Object">
    <rect class="cls-44" width="1254" height="1254"/>
    <path class="cls-44" d="M641.34,444.66l-22.23-1.09-.55-1.58-7.27-35.13c-7.38-46.29-10.61-92.7-9.71-139.57.84-43.85,6.41-89.65,18.73-132.4,14.09,27.12,23.16,60.09,27.96,89.95,3.87,24.05,6.38,47.69,7.02,72.18,1,38.53-1.56,76.55-7.28,114.54l-6.67,33.11Z"/>
    <path class="cls-43" d="M614.65,483.53c2.53,7.22,9.71,12.28,17.49,10.84,4.91-.91,8.79-4.16,10.83-8.26,6.84,6.8,7.6,17.33,2.6,25.22-5.43,8.57-15.75,11.53-25.3,7.88s-15.55-14.2-12.93-24.55c.84-3.33,4.64-9.76,7.31-11.12Z"/>
    <g>
      <path class="cls-20" d="M657.38,446.3c-2.43,10.29-5.59,20.46-9.74,30.45l-4.66,9.36c1.45,2.4-2.65,5.77-4.73,7.11-6.38,4.1-14.21,3.3-19.78-1.75-1.86-1.69-5.56-5.7-3.82-7.93.69-1.18,1.98-1.78,3.23-2.42l1.39.55c2.43,8.66,13.82,11.21,18.8,3.11,8.62-14.02,14.64-37.21,17.48-53.58,13.23-76.06,16-155.32-.91-231.24-6.65-29.84-16.61-60.24-34.01-85.12l-4.7,3.71c-.18.03-.7-.38-.67-.36,4.91,3.85,12.33,20.13,15.27,26.65,18.61,41.27,26.27,90.92,29,136.17,3.38,56.18-.83,123.81-16.78,177.62-1.81,6.12-5.82,18.58-9.92,22.86-2.91,3.03-9.38,1.67-7.84-2.69l4.74-1.07c5.51-10.54,8.78-21.82,11.63-33.08l-1.09-.8c14.79-64.51,17.94-137.67,8.7-206.34-4.56-33.94-12.91-67.52-27.85-98.37-.67-4.81-.88-5.05-.64-.72-25.86,97.6-21.94,207.57-.86,302.59l-1.05.97c.79,2.31-3.22,1.9-4.78,1.18-12.39-51.31-17.71-109.47-17.16-166.95.48-49.3,5.58-98.42,19.81-145.68-1.53-1.96-2.99-4.16-4.37-6.6-30.97,103.05-25.42,214.85-5.02,319.52-1.7.28-3.24.22-4.62-.18l-6.54-32.66c-6.41-39.91-9.75-79.81-10.33-120.36-.8-56.2,5.35-116.01,22.32-169.67-4.92,1.19-10.38.15-13.78-3.8s-3.15-9.83-.81-14.36l-17.28-7.98c-4.23-1.95-5.45-6.82-3.84-10.6s5.89-6.99,9.87-5.21l7.66,3.43-12.02-25.47c-2.32-4.92-.91-10.03,4.07-12.22s9.45,1.24,11.26,6.24c4.65,12.91,11.09,24.66,17.55,36.87,4.24-2.39,8.24-.93,11.79,1.25,3.75,2.31,3.23,7.31,4.61,10.51,2.92,2.77,6.93,4.97,7.48,9.1.6,4.56-.46,8.5-4.06,11.78,17.19,29.96,27.1,64.3,32.89,98.33,10.21,60.07,10.19,116.57,2.95,177.03-2.09,17.45-4.89,34.11-8.82,50.78Z"/>
      <g>
        <path class="cls-82" d="M618.56,441.99c1.63-.68,1.98.68.55,1.58l-1.83.38-14.87-.04.02-.63,3.81-.06c-3.7-15-6.15-29.64-8.4-45.02-6.8-46.39-9.59-92.8-8.24-139.74.59-20.6,2.36-40.23,5.08-60.55,3.51-26.25,8.92-51.51,17-76.92l5.9,9.54c-10.47,36.4-16.6,73.41-18.64,111.34-2.7,50.18-.52,100.11,6.16,149.72l3.7,22.8,6.27,28.92,2.44.04c.55,0,1.21-.42,1.06-1.37Z"/>
        <path class="cls-6" d="M617.88,481.11c2.27-1.18,4.62-1.75,7.09-2.31.61,1.78,2,3.07,3.64,3.15s3.51-1.01,4.46-2.73c4.75-8.58,7.73-17.8,10.36-27.47,12.28-45.09,16.56-103.73,15.63-150.65-.69-34.58-4.55-68.65-12.2-102.3-6.1-26.84-16.71-57.99-32.56-80.6,2.53-1.77,4.58-3.19,6.66-5.44,7.57,10.87,13.42,21.9,18.47,34.06,10.7,25.77,17.25,52.58,21.51,80.24,6.6,42.79,8.35,85.45,5.24,128.68-1.76,24.46-4.23,48.08-8.71,72.07-3.16,16.89-9.65,43.58-18.1,57.23-2.77,4.47-7.5,6.85-12.66,5.54-4.19-1.06-7.91-4.85-8.81-9.47Z"/>
        <path class="cls-16" d="M604.97,90.01l-9.41-4.76c-5.52-10.75-10.77-21.31-15.01-32.75-.88-2.37,2.16-4.52,3.81-4.65,2.92-.22,3.98,1.42,4.93,3.99,4.95,13.29,11.61,25.43,18.31,38.24-.71.6-1.79.35-2.64-.07Z"/>
        <path class="cls-78" d="M595.44,111.64c-.58-2.71-.43-5.04,1.02-7.4,1.66,3.63,4.72,5.51,8.54,4.77,5.21-1.01,9.7-5.22,10.94-10.38.71-2.98.3-5.97-1.79-8.43,2.17-.48,4.54.5,6.18,1.93,2,1.74,2.56,4.22,2.37,7.19-.66,10.5-10.22,18.56-20.73,17.7-3.13-.26-5.87-2.33-6.52-5.37Z"/>
        <path class="cls-39" d="M601.5,92.68c-2.83,2.07-4.5,3.81-5.56,6.81l-18.63-8.81c-2.01-.95-2.13-3.95-1.39-5.56.85-1.86,3.44-3.59,5.66-2.48l19.92,10.03Z"/>
        <path class="cls-86" d="M599.8,99.58c1.45-2.43,3.75-3.66,6.4-4.63l6.6-2.42c1.49,6.19-3.43,12.12-9.58,12.64-1.44.12-2.59-.87-3.16-1.52-.84-.96-1-2.85-.27-4.07Z"/>
        <path class="cls-82" d="M628.52,116.94l-5.07-7.26c1.18-2.05,1.86-3.91,2.39-6.31,2.68.8,4.24,3.14,4.75,4.97.86,3.13.24,5.71-2.07,8.6Z"/>
      </g>
    </g>
    <g>
      <path class="cls-29" d="M641.34,444.66c.19.51.36,1.03.45,1.56s.15,1,.05,1.46c-1.93,8.42-6.68,24.92-11.87,31.15-.34.41-4.83,1.58-5-.02-.82,1.98-5.21,3.27-7.09,2.31.26,1.75-1.61,2.78-3.23,2.42l.07,1.4c-13.06,12-6.12,33,12.07,34.52,17.16,1.44,27.15-18.56,16.2-31.54l-.02-1.8-.79-1.16c5.86-11.57,10.51-23.88,13.94-36.91l1.26-1.73c13.09,2.67,24.38,10.66,31.6,21.94,4.2,7.31,6.53,14.99,7.28,23.45l2.53,28.87,289.01,7.48c16.79.43,31.94,8.23,40.22,23.14,3.51,6.32,6.61,13.04,6.79,20.82l4,171.4,3.93,176.2,1.87,85.07c.54,24.59-21.8,47.62-44.22,47.71l-283.61,1.11-158.1.6-174.27.61-138.8.33c-25.48.06-49.08-22.54-48.7-49.38l2.71-193.69,1.26-90.08,2.39-163.97c.41-28.27,21.81-51.98,50.73-51.08l95.92,2.95,207.16,6.46,2.59-31.29c1.72-13.35,9.31-24.89,19.96-32.61,7-4.93,14.57-8.44,22.78-8.42,1.06-.38,2.31-.49,3.75-.34.08-.47.17-.85.33-.87,1.17-.2,6.76-.18,7.97.02.59.93,1.66,1.22,3.2.88.83-.5,1.31-.51,1.45-.03l.47-1.2c7.03.34,14.06.69,21.09,1.04l.66,1.26Z"/>
      <path class="cls-49" d="M1024.46,1000.09c.39,16.76-10.38,30.67-26.48,33.67l-370.98,1.12-378.86.97c-18.38.05-31.38-16.13-31.14-33.62l3.68-265.01,2.41-181.63c.23-17.28,14.01-32.09,31.76-31.53l277.86,8.82,195.32,5.79,255.81,6.99c16.79.46,30.19,12.1,30.6,29.56l6,253.18,4.02,171.69Z"/>
      <path class="cls-30" d="M1018.64,1001.69c-.16,13.74-9.3,24.64-22.55,26.41l-476.83,1.47-271.09.59c-15.43.03-25.68-13.94-25.48-28.53l2.56-180.57,3.57-265.52c.22-16.07,13.01-26.37,28.49-25.87l268.68,8.69,330.54,9.47,127.25,3.47c14.7.4,24.75,10.55,25.08,25.11l6.24,269.76,3.53,155.52Z"/>
      <g>
        <path class="cls-21" d="M353.31,658.32c-.93-.3-2.3-.94-3.73-.95l-59.31-.58c-2.53-.02-4.62,2.29-4.62,4.58.15,13.88.1,27.76-.17,41.62l-.12,44.05c-.16-.14-.61,0-.61.22l-.02,46.32c-.62.42-3.94-.07-3.94-1.33l.47-126.14c.01-3.43-.3-7.11.79-9.92,1.67-4.29,6.16-3.84,9.93-3.77l59.29,1.03c1.17.02,2.44.86,2.73,1.52.46,1.02-.13,2.43-.7,3.35Z"/>
        <path class="cls-41" d="M756.22,798.25c.64,1.37,1.87,2.63,3.7,2.64l10.95.02c2.8,0,4.46-2.58,4.44-5.64l-1-124.55c-.02-1.99-.38-3.3-1.12-4.68.75.26,1.93-.81,2.7-1.06,2.2.83,2.71,3.88,2.72,6.25l.29,38.49.63,88.03c.03,4.5-3.11,7.77-7.38,7.72l-11.83-.13c-2.24-.03-5.18-1.37-5.41-3.8l1.3-3.29Z"/>
        <path class="cls-77" d="M749.71,966.13c.65,1.27,2.38,2.11,3.93,2.11h10.01c2.71-.02,4.63-2.23,4.61-5.35l-.81-123.3-.53-4.99c-.09-.85.75-2.97,2.19-2.46,1.24.44,2.39,2.72,2.41,4.51l.98,129.18c.03,3.88-3.99,6.34-7.02,6.58-4.77.38-8.87.34-13.48-.24-2.3-.29-5.38-3.55-4.13-5.4.32-.47,1.08-.69,1.85-.64Z"/>
        <circle class="cls-54" cx="380.83" cy="1001.91" r="12.48"/>
        <circle class="cls-24" cx="863.29" cy="1001" r="12.45"/>
        <circle class="cls-15" cx="856.58" cy="575.51" r="12.43"/>
        <circle class="cls-72" cx="386.36" cy="564.17" r="12.24"/>
        <path class="cls-25" d="M423.3,964.99c1.04,1.97,3.36,3.03,5.98,3.03l53.15.13c1.85,0,3.49-1.82,3.49-3.38v-13.48c-.01-1.17.86-2.27,1.81-2.38,3.41-.38,3.29,9.75,2.66,16.63-.38,4.16-4.01,7.15-8.17,7.13l-52.35-.15c-4.69-.01-9.37-2.63-8.4-5.71.25-.81.8-1.59,1.83-1.83Z"/>
        <g>
          <path class="cls-51" d="M688.34,835.37c.48.13,1.19.33,1.23.7.5,4.68,1.22,15.83-4.98,16.1-6.05-.08-12.03.11-17.95.56l-.52.97.28,108.77c-1.35,7.47-6.97,7.66-13.65,7.06-2.09-.19-7.27-.67-6.48-3.29l-.5-110.74c0-1.61-.09-2.25-.82-3.14-.61.48-1.39.43-2.33-.16l-17.36-.24c-2.31-.71-4.01-1.63-3.12-4.06l.1-11.43c.02-2.79,1.99-4.52,4.78-4.51l56.26.23c2.45.01,4.13,1.1,5.05,3.18Z"/>
          <path class="cls-28" d="M646.28,966.24c3.2,2.66,10.97,2.52,15.78,1.34,2.04-.5,3.13-2.81,3.12-5.14l-.39-107.58c0-2.38.95-3.72,3.3-3.74l15.8-.13c2.42-.02,4.47-1.69,4.46-4.2v-11.42c0-.6.39-1.81.76-2.35.5-.73,2.08-.4,2.43.31,1.88,3.73,1.58,10.49,1.06,15.95-.33,3.53-3.37,5.99-6.83,6.02l-16.53.15.34,109.67c.01,4.19-3.54,7.12-7.03,7.13l-12.27.04c-2.34,0-4.7-1.47-5.53-3.61-.34-.88-.02-1.76.58-2.15.32-.21.67-.26.94-.27Z"/>
          <path class="cls-84" d="M644.96,852.36l-3.6,2.86-14.54-.12c-2.82-.02-5.79-1.74-6.54-4.34.89-.89,1.85-1.82,1.86-2.85.77,1.67,2.21,2.96,4.37,2.97l15.79.09c1.45,0,2.03.65,2.65,1.4Z"/>
        </g>
        <circle class="cls-2" cx="758.97" cy="571.47" r="5.07"/>
        <g>
          <path class="cls-83" d="M486.46,834.21c.48.12,1.19.32,1.23.68.47,4.96,1.55,17.2-5.4,16.82l-35.86-.1-1.48.53c-.48,10.86-.65,21.75-.54,32.68l-.53,1.19c.35.76,1.31,1.69,2.61,1.69l26.23.13c2.23.01,3.64,1.6,4.47,3.36.48.06,1.19.2,1.22.54.46,4.84,1.36,16.87-5.39,16.63-9.57-.18-19.05,0-28.43.53-.29,11.31-.38,22.66-.27,34.05.43,1.38.25,2.42-.55,3.12.46,1.34,1.4,2.39,3.28,2.4l34.79.13c2.02,0,3.34,1.19,4.07,2.72.48.06,1.2.21,1.23.54.2,2.22.25,13.55-.48,14.82-.81,1.41-1.96,2.37-3.58,2.66l-54.63-.11c-2.18-.3-6.94-1.66-5.14-4.22l-.16-2.41c.19-29.57.36-59.19.5-88.86l.1-38.38c.39-2.82,2.11-4.4,4.92-4.39l52.73.21c2.42,0,4.09,1.12,5.08,3.04Z"/>
          <path class="cls-33" d="M443.88,886c-.12-.26-.77-.54-.77-1.23l.34-31.69c.02-1.73,1.21-2.71,2.92-2.7l36.09.1c2.19,0,4.08-1.76,4.07-3.9l-.07-12.37c0-.82,1.23-2.66,2.18-2.61,1.55.32,2.31,2.7,2.31,4.23v12.13c.02,4.48-3.54,7.35-7.92,7.34l-35.02-.09-.2,26.52c-.02,2.57-1.62,4.19-3.94,4.26Z"/>
          <path class="cls-8" d="M443.77,946.05c-.3-.88-.67-1.77-.67-3.1l.04-33.07c0-1.67.94-2.63,2.63-2.64l27.19-.1c2.27,0,4.21-1.66,4.21-3.96l.03-11.99c0-.85,1.33-2.75,2.3-2.7,1.74.81,2.31,3.55,2.31,5.44v10.4c-.29,4.28-3.49,7.49-7.89,7.5l-26.27.04.09,31.09c0,1.14-.3,2.11-.91,2.64-.83.72-2,.74-3.06.46Z"/>
          <path class="cls-25" d="M423.14,962.58l-.06-87.55c0-.78.26-1.09.55-1.31l.11,87.54c0,.75-.29,1.09-.6,1.32Z"/>
        </g>
        <g>
          <path class="cls-35" d="M724.31,664.94c1.69.14,2.49,1.61,2.39,4.41l.22,46.92c.37,1.27.5,2.48.39,3.62.66.41,1.41.96,2.55.97l21.79.15c2.24.01,3.75-1.18,3.74-3.46l-.2-48.13c-.01-2.55,1.64-5.54,4.11-5.55l10.36-.04c1.66,0,2.92,1.05,3.55,2.21,1.67-.02,2.45,1.38,2.34,4.22l.95,126.12c-.19,1.49-.71,3.01-1.79,4.11-2.02,2.07-14.71,2.33-17.13,1.01-1.59-.87-1.63-1.5-1.33-3.24l-.53-55.51c-.01-1.1-1.05-2.64-2.07-2.66l-.07.81c-8.01.28-16.17.22-24.47-.2-1.33.17-1.8.47-2.04,1.78l.3,52.9c-.09,3.14-1.34,5.05-4.24,6.23-2.32.94-15.5.55-16.48-2.39-.16-.49.17-1.04.48-1.5l-.83-129.73c-.02-2.42,1.92-4.78,3.96-4.76l11.56.09c1.17,0,2.13.86,2.52,1.62Z"/>
          <path class="cls-56" d="M753.63,740.08c.62,1.52-.76,3.67-2.69,3.69l-20.6.3.17,53.1c.01,4.43-3.04,8.08-7.37,8.05l-11.66-.1c-2.27-.02-4.75-1.25-5.88-3.25-.92-1.63.53-3.39,1.51-4.16.65,1.37,2.66,2.8,4.09,2.8l10.49.05c2.75.01,4.46-2.44,4.44-5.23l-.29-52.95c-.01-1.87,1.78-2.95,3.39-2.91l24.41.6Z"/>
          <path class="cls-27" d="M727.3,719.89c-1.07-.66-1.61-1.96-1.61-3.59l-.21-46.42c0-1.95-.45-3.51-1.17-4.95.79-.95,1.67-1.93,2.96-2.41,1.98,2.53,2.34,5.45,2.35,8.66l.26,45.02c.01,1.76-1.31,3.35-2.58,3.67Z"/>
        </g>
        <g>
          <path class="cls-80" d="M356.57,833.51l1.22.57c-.21,17.58-.09,35.05.37,52.39.54.37,1.03,1.09,2.1,1.09h22.31c2.29.01,3.65-1.77,3.67-4.09l.37-48c.02-2.76,2.04-4.63,4.63-4.63l9.86.02c1.85,0,3.8,1.01,4.33,2.61,1.49.23,2.08,1.62,1.75,4.15l-.48,126.33c-1.01,7.25-12.45,6.05-17.87,4.85-.99-.22-3.43-1.8-2.64-3.02l-.07-54.63c0-1.16-.16-1.83-.53-2.59-.95.08-1.96-.08-3.02-.5h-23.24c-1.23.19-1.63.7-1.65,1.98l-.41,52.77c.15,7.49-10.8,7.58-16.09,6.4-2.1-.47-5.49-1.47-4.35-4.04l.67-129.2c.02-3.18,1.64-5.27,4.78-5.26l9.8.06c2.05.01,3.64,1.19,4.5,2.76Z"/>
          <path class="cls-59" d="M386.19,965.78l3.02,1.88c4.01.89,8.26.75,12.34.26,2.8-.34,4.03-2.63,4.04-5.48l.36-123.46c0-2.2,0-3.9-.53-5.52.5-1.23.96-2.48,2.21-3.26,1.62,1.93,2.33,3.96,2.33,6.55l-.09,127.57c0,4.57-3.36,8.01-7.56,8.03l-11.1.04c-2.66.01-5.56-1.31-6.69-3.78-.65-1.43.87-2.63,1.66-2.84Z"/>
          <path class="cls-61" d="M385.59,908.56c-.82.94-2.02,2.44-3.6,2.46l-21.12.26-.31,52.98c-.03,4.72-3.26,8.15-7.85,8.16h-11.1c-2.51,0-5.57-1.45-6.48-3.81-.53-1.36.99-2.73,1.7-3.44,1.85,3.73,9,3.49,15.19,2.77,2.34-.27,4.01-2.71,4.03-5.19l.41-52.78c.01-1.86,1.12-3.13,3-3.13h23.18c1.44.01,2.48.78,2.95,1.73Z"/>
          <path class="cls-11" d="M358.17,886.47c-.94-.65-1.49-1.58-1.61-3.09l.02-49.87c0-.81,1.07-2.79,2.36-2.56,1.55.84,2.04,3.74,2.03,5.72l-.14,46.82-2.65,2.97Z"/>
        </g>
        <g>
          <path class="cls-76" d="M844.25,834.98l1.3-.02c8.36,22.32,16.44,44.75,24.23,67.3l.18,2.98,1.29.16c-.28-16.76-.26-33.5.09-50.24-.55-5.91-.73-11.83-.53-17.76.48-2.92,2.43-6.73,5.35-4.18,2.87-.44,5.82-.4,8.7-.02,1.33-1.77,4.24-.92,4.36,1.34.14.13.37.44.47.61.28-.06.56-.1.82-.04.68.13,1.08,5.61,1.17,6.85l1.21,121.79c-.85,7.86-15.86,6.81-20.69,4.03-.43-.25-.33-1.14-.26-1.76l-26.34-73.13c-.69-1.91-1.2-3.3-2.21-4.79-.71,1.81-.37,2.97-.36,4.13.89.84,1.31,2.29,1.26,4.36l.47,66.18c.36,8.93-15.54,8.5-20.08,4.01,0,0,.08-3.88.24-11.63l-.61-67.89-.47-49.33c-.03-2.85,1.81-4.89,4.6-4.89h11.14c2.01,0,3.57.7,4.71,1.95Z"/>
          <path class="cls-48" d="M871.92,966.02c2.75,2.93,12.21,2.94,16.82,1.61,1.81-.52,3.03-2.96,3.01-5.2l-1.31-120.38-.76-6.89c.92.12,1.68-1.3,2.46-1.97,2.22,1.77,2.57,4.67,2.61,7.63l1.35,123.67c.05,4.7-3.49,7.73-7.57,7.76l-11.72.09c-2.82.02-5.36-1.24-6.81-3.64l1.93-2.69Z"/>
          <path class="cls-28" d="M824.89,955.14c.28.24.49.63.49,1.24l.06,9.2c.02,2.89,10.1,3.9,15.89,1.82,1.47-.53,2.18-3.03,2.17-4.65l-.5-70.52c.35-.16,1.23-.1,1.41.43,2.11,6.24,2.67,12.42,2.74,19.11l.58,52.83c.03,3.13-2.03,6.68-5.07,7.22-6.32,1.12-16.4,1.48-19.03-2.45-.85-1.27.73-3,.78-4.05l.47-10.17Z"/>
          <path class="cls-57" d="M889.21,834.54c-1.18-1.05-2.93-.94-4.36-1.34-2.89-.38-5.82-.42-8.7.02-1.02.33-2.24.29-2.94,1.13-.83.99-1.23,2.3-1.22,3.94l.52,72.3c-1.31-1.61-1.9-3.57-2.55-5.36-1.07-6.49-2.6-12.91-4.59-19.27l.95-1.18c.94-.93,1.33-2.19,1.33-3.66v-12.57c0-1.63-.96-4.02.93-4.6l1.19,1.01c.11.1,1.01-1.21.85-1.63-1.04-2.77-1.68-5.17.03-8.03-4.25-6.87-3.52-11.78-3.29-19.06.13-3.95,2.63-6.99,6.54-6.99h10.71c1.35,0,3.21.48,3.91,1.72.49.87,1.27,2.41.69,3.55Z"/>
          <path class="cls-90" d="M866.32,884.8l3.77,14.15c.59,2.22.77,4.28-.14,6.29l-25.7-70.26c.75-.65,1.18-1.6,2.44-1.74l5.07,12.36,14.56,39.19Z"/>
          <path class="cls-30" d="M884.85,833.21l-8.7.02c2.7-.87,5.99-.77,8.7-.02Z"/>
        </g>
        <g>
          <path class="cls-75" d="M719.07,834l1.28.56c.58,17.61.89,35.12.92,52.52.49.51.85,1.19,1.97,1.19l21.9.05c2.16,0,3.6-1.38,3.59-3.62l-.14-47.63c0-2.41,1.7-4.38,3.94-4.39l10.41-.03c1.71,0,3.06.82,3.97,1.97.48-.11,1.2-.09,1.26.24.27,1.47.4,3.31.49,4.82l.73,124.4c-.92,3.35-1.6,4.31-4.99,5.33-2.25.68-13.58.39-15.03-1.68-.27-.39.07-1.08.34-1.59-.6-1.17-.56-2.96-.56-4.6l-.21-51.47c-.82-.28-1.63-.9-2.42-1.88-7.98-.1-15.95-.06-23.91.14l-1.06.52.16,54.52c1.14,7.37-15.56,7.01-18.85,4.87-1.47-.95-2.6-1.81-1.46-3.47.15-11.81.07-23.6-.24-35.35l-.26-91.7c0-3.18,1.62-5.42,4.7-5.38l10.44.16c1.18.02,2.13,1.07,3.03,1.5Z"/>
          <path class="cls-69" d="M748.94,910.06c-1.04-.26-2.27,1.37-3.45,1.38l-20.97.22.07,52.65c0,4.58-3.46,7.86-7.67,7.85l-11.44-.03c-2.58,0-5.17-1.72-6.1-4.14-.45-1.16,1.1-2.43,1.67-3.22l.14-35.36c.31.24.53.63.53,1.27l.09,34.25c0,1.94,3.2,3.11,4.69,3.11l9.3-.03c2.74,0,4.74-2.16,4.73-5.04l-.17-54.1c0-1.42,2.35-1.96,3.41-1.96l22.6.03c1.71,0,2.59,1.8,2.6,3.11Z"/>
          <path class="cls-89" d="M721.27,887.08c-.46-.49-1.37-1.11-1.38-2.35l-.28-44.6-.54-6.13c-.08-.92,1.72-2.7,2.62-1.77,1.78,1.85,2.09,4.67,2.1,7.26l.24,45.25c-.53,1.11-2.11,1.7-2.76,2.33Z"/>
        </g>
        <g>
          <path class="cls-83" d="M841.47,665.68c.28.23.49.89,1.06.84,1.5.25,2.33,1.51,2.48,3.78l26.66,125.91c.19,2.07-.49,4.36-2.23,5.63-1.87,1.36-15.52,1.35-17.2-.32-.33-.33-.08-1.06.09-1.59-.81-1.08-.98-2.53-1.28-3.9l-5.45-25.3c-8.22-.39-16.82-.45-25.17-.29l-.75,1.24-5.05,26.05c.29,6.46-16.31,5.63-19,3.65-.43-.32-.33-1.14-.25-1.76-.96-1.05-.84-2.54-.57-3.92l-1.12-.65,24.54-126.45c.67-1.83,1.66-3.66,3.4-4.65,2.35-1.35,16.56-.6,19.72.2l.12,1.52Z"/>
          <g>
            <path class="cls-18" d="M841.47,665.68c-.55-.45-1.83-1.08-2.83-1.08l-15.02.04c-2.7,0-4.31,3.85-4.82,6.52l-12.86,67.82-11.12,56.72c-.41.72-.63,1.15-.88,2.23-4.19-3.14-2.05-10.92-.63-17.97l8.19-40.88c.29-1.45,1.13-1.96.93-3.79-.26-2.28.82-5.14,1.27-7.52.21-1.1,1.76-1.55,2.86-1.91-1.55-2.28-.53-4.05-.52-5.92,0-2.13-.35-3.86.1-6.14l5.74-29.13,3.84-18.3c.73-3.47,3.1-5.89,6.89-6.05,6.04-.25,12.29-.36,18.27.78,1.59.3,1.3,3.73.59,4.56Z"/>
            <g>
              <path class="cls-56" d="M852.34,799.94c.72.96,2.3,1.56,3.63,1.55l11.1-.06c2.31-.01,3.88-2.92,3.3-5.63l-25.67-120.66c-.67-3.17-.85-5.55-2.17-8.61.6-.86,1.28-1.8,2.21-2.19,2.58,2.09,3,4.58,3.66,7.74l26.2,124.94c.82,3.93-1.57,8.16-4.96,8.76-6.74,1.2-18.08,1.5-19.15-3.52.16-1.01,1.48-1.67,1.87-2.32Z"/>
              <path class="cls-8" d="M845.62,770.73c-.84,1.12-2.16,2.95-3.9,2.98l-19.25.32-4.68,25.26c-.76,4.11-3.35,6.82-7.74,6.71l-10.4-.27c-2.44-.06-5.13-1.35-6.06-3.69-.45-1.13,1.18-2.04,1.81-2.42,1.02,1.11,2.81,1.65,4.39,1.66l9.02.07c2.4.02,4.19-1.55,4.64-3.91l5.05-26.06c.26-1.33,1.19-2.32,2.62-2.31l22.42.21c.76,0,1.91.69,2.08,1.44Z"/>
              <path class="cls-85" d="M840.66,751.51c-5.36.22-10.69.14-15.97-.23l-.57.07c-.58-.95-.08-1.93,1.49-2.96,3.23-12.42,5.7-25.62,5.99-38.86.18-1,.89-1.11,1.76-.49l8.37,40.51c.16.75-.42,1.93-1.07,1.95Z"/>
              <path class="cls-22" d="M833.36,709.05c-.28-.04-.57.2-.56.66.04,6.1-.45,11.98-1.59,17.98l-3.72,19.65c-.35,1.86-2.23,2.99-3.37,4.02-.82-.25-1.41-1.28-1.18-2.5l8.68-46.16c1.17,1.98,1.3,4.24,1.74,6.35Z"/>
              <path class="cls-22" d="M840.66,751.51l-14.7.46c-.69.02-1.15-.34-1.28-.69l15.97.23Z"/>
            </g>
          </g>
        </g>
        <g>
          <path class="cls-83" d="M353.31,658.32c.25.28.54.96,1.14,1.1.65.25,1.13.67,1.48,1.26,1.37,2.28.67,13.72-1.84,15.81-1.23,1.03-2.88,1.43-4.46,1.45l-39.77-.47c-2.14.25-2.47.51-2.84,2.63-.25,12.04-.13,23.94.36,35.71.62.32,1.43.68,2.42.69l27.57.24c1.68.01,2.77,1.4,3.85,2.22.48.05,1.2.2,1.23.53.27,2.88.47,13.46-.76,15.43-.98,1.56-2.5,2.46-4.33,2.48-9.9-.25-19.75-.2-29.54.16l-.97,1.76-.37,53.37c-.04,2.18-.97,4.2-2.88,5.36-2.38,1.44-16.97,1.49-18.36-1.06-.28-.51-.11-1.16.06-1.73l.04-48.22-1.22-.58c.04-14.24.08-28.48.11-42.73l1.23-.74c.27-13.84.33-27.71.17-41.62-2.56-2.98,1.52-5.15,4.56-5.81l59.45.58c2.27-.08,3.49.64,3.66,2.17Z"/>
          <path class="cls-34" d="M285.32,795.26c1.09,1.32,2.47,2.37,4.42,2.38h10.77c2.81.01,4.74-2.09,4.76-4.98l.38-53.43c.01-2.05,1.75-3.25,3.54-3.24l28.21.19c2.3.02,3.93-2.11,3.92-4.22l-.09-13c4.76-5.29,5.77,7.58,3.94,16.89-.6,3.07-3.73,4.75-6.73,4.76l-28.2.06-.61,53.29c-.05,4.68-2.96,8.35-7.66,8.36l-12.01.03c-2.26,0-4.97-1.01-6.19-2.9-1.14-1.76.7-3.17,1.55-4.18Z"/>
          <path class="cls-38" d="M307.39,715.81c-.97-.5-1.66-1.81-1.65-3.24l.08-32.54c0-2.44,1.72-3.81,4.02-3.78l39.78.47c2.6.03,5.01-1.39,5.27-4.02.44-4.48.45-9.22-.42-13.28.58-.28,1.56-1.11,2.6-1.04,1.28.08,2.1,1.95,2.08,3.24l-.21,13.27c-.06,3.64-3.2,6.47-7.05,6.45l-41.35-.16-.09,27.88c0,2.87-.71,5.38-3.05,6.76Z"/>
          <path class="cls-30" d="M285.48,702.99l.17-41.62.31,40.33c0,.64-.26,1.05-.48,1.29Z"/>
        </g>
        <g>
          <path class="cls-76" d="M436.91,671.84c.51-.08,1.08-.16,1.52.1,2.37,1.42,5.62,14.79,5.33,18.02-.21,2.35-.46,4.44-2.72,5.82-.97.59-12.13.59-13.71.26-1.81-.38-4.65-1.27-3.61-3.36-.96-3.43-1.4-6.88-3.42-10.04l-1.5-.05c-8.62-11.19-25.07-3.38-24.73,10.28l-.31,69.99.49,4.86c1.03,2.24,1.38,4.28,1.03,6.13,2.62,4.63,7.72,6.88,13.14,6.85,7.39-.03,13.32-4.71,14.92-11.98.51-2.31,1.99-4.71,4.64-4.7l10.45.04c1.67,0,3.41.91,4.06,2.33,2.46-.18,1.91,3.67,1.6,5.48-4.17,24.13-30.1,36.09-51.85,25.73-3.83-1.83-9.91-5.24-10.49-9.48-5.85-6.68-8.81-15.87-8.78-25.23l.24-71.41c.03-8.4,3.25-16.32,8.47-22.62,6.61-7.97,16.43-11.74,26.73-11.79,11.62-.06,22.14,5.11,28.51,14.76Z"/>
          <path class="cls-56" d="M420.3,682.65c-1.09.36-2.55,1.09-3.57.38-5.19-3.64-12.13-2.76-16.15,2.34-2.08,2.64-3.36,6.01-3.37,9.66l-.2,65.95c-.01,4.65.73,8.61,2.63,13.17-1.51.86-2.86.22-4.36-.29-1.84-3.25-2.76-6.9-2.74-10.97l.31-70.03c.02-4.88,2.17-9.68,5.38-12.9,3.65-3.67,9.04-4.21,13.83-3.4,3.9.65,6.31,3.06,8.25,6.11Z"/>
          <path class="cls-48" d="M381.74,788.13c7.82,8.93,18.71,12.59,30.35,11.63,14.93-1.22,26.79-10.96,30.25-25.61.61-2.57,1.27-5.27.15-7.76l3.22-.39c1.57,2.5,1.43,5.51,1.01,8.17-3.03,19.27-19.2,31.52-38.33,30.45-12.24-.69-23.72-5.08-30.39-15.79l3.75-.71Z"/>
          <path class="cls-4" d="M423.72,692.69c.76.91,2.55,2.12,3.72,2.14l11.56.2c6.35.11,3.25-15.09-2.09-23.19,1.17-.42,1.84-1.12,2.93-1.17,7.46,9.67,10.63,28.86.24,28.98l-12.03.14c-3.13.04-5.66-1.83-6.88-4.58l2.55-2.52Z"/>
        </g>
        <g>
          <path class="cls-80" d="M803.51,833.35c.15.58.91.96,1.25,1.21,1.28.18,1.88,1.46,1.79,3.84l.77,125.22c.36,7.5-15.16,6.93-18.92,4.44-1-.66-1.7-1.44-.97-2.57v-2.33c-.22-16.22-.39-32.57-.53-49.04l-1.23-.56c-.03-10.76-.05-21.53-.08-32.31l1.22-.74c-.41-14.63-.51-29.3-.3-44.02-1.99-1.01.02-3.16,1.49-3.95,2.27-1.22,11.61-1.54,13.98-.66.69.26,1.15.85,1.52,1.47Z"/>
          <path class="cls-33" d="M787.42,965.48c.86.58,1.82,2.17,3.26,2.35,4.13.53,8.28.64,12.49-.1,1.87-.33,2.99-2.92,2.97-5.05l-.82-124.34-.57-3.78,2.42-2.05c1.05,1.14,2.15,2.77,2.17,4.75l1.12,126.34c.03,3.78-2.06,7.5-5.65,8.23-4.51.91-9.02.48-13.61.29-2.16-.09-4.84-1.47-5.49-3.5-.41-1.28,1.25-2.45,1.71-3.14Z"/>
          <path class="cls-45" d="M803.51,833.35c-4.13-.72-8.83-.8-13.46-.32-1.37.14-3.52,1.95-3.54,3.46-.21,14.72-.11,29.4.3,44.02l.08,33.61c.42,16.14.5,33.05-.11,49.05.46.95-1.06,3.45-2.18,2.75-1.56-.98-1.53-3.99-1.53-5.83l-.23-51.71-.46-73.15c-.02-3.71,2.71-6.05,6.13-6.33,6.1-.51,15.2-.92,15.91,1.7.21.76-.41,2.03-.91,2.76Z"/>
          <path class="cls-33" d="M787.42,963.15h-.64s.11-49.04.11-49.04c.28.23.54.62.54,1.29l-.02,47.75Z"/>
          <path class="cls-30" d="M786.81,880.51c-.35-.08-.71-.53-.7-1.25l.4-42.77.3,44.02Z"/>
        </g>
        <g>
          <path class="cls-83" d="M481.27,662.65l1.44.8c.85,14.76.73,29.42-.36,43.97l.69-.16,9.75-16.11,15.72-27.67c1.02-1.8,2.62-3.25,4.71-3.2l12.14.31c1.44.04,2.46,1.24,3.46,1.98,1.13.94,1.14,2.59.05,4.92-9.14,15.73-18.1,31.52-26.88,47.37,10.32,25.91,20.71,51.85,31.17,77.81.61,3.04.82,5.92-2.38,7.52-1.35.67-12.58.64-14.52.34-1.59-.25-4.26-.73-3.76-2.65l-22.71-55.99c-1.04-.07-1.65-.48-1.85-1.22l-4.73,7.59-.18,45.23c.59,7.82-11.12,7.42-16.46,6.54-2.08-.34-4.83-.85-4.48-3.39l.04-132.1c0-2.95,2.2-4.87,4.5-4.87h10.26c2.04.01,3.87,1.18,4.38,3Z"/>
          <path class="cls-3" d="M512.49,797.88c1.55.85,3.19,1.53,5.15,1.52l11.16-.02c2.46,0,3.86-2.17,3.5-4.65-.44-3.05-1.59-5.59-2.79-8.52l-27.73-67.58c-.59-1.44-1.52-3.7-.72-5.1l26.74-46.66,1-4.31c.29-1.23,1.29-2.5,2.94-3.51,3.27,4.64.94,9.74-1.67,14.31l-24.6,43.24,20.98,50.09,9.18,23.27c.72,2.33,1.19,4.65,1.12,7.09-.11,3.78-2.83,6.77-6.66,6.75l-13.27-.05c-2.58-.01-4.89-1.36-6.3-3.45l1.95-2.44Z"/>
          <path class="cls-89" d="M489.78,741.89l-.86,3.67-2.39,4.29-.49,46.05c-.04,4.14-3.22,7.65-7.23,7.61l-12.23-.12c-2.49-.03-5.2-1.31-6.07-3.73l1.56-3.02c1.32.8,2.44,2.14,4.11,2.16l10.76.14c2.99.04,4.84-2.49,4.86-5.48l.27-45.56,5.83-9.5c1.5.96,1.44,2.38,1.89,3.5Z"/>
          <path class="cls-37" d="M483.04,707.27c-.17,1.16-1.69.5-1.07-.52l-.11-36.85c0-2.62.02-5.04-.6-7.24.51-.71.89-1.5,1.82-2.14,1.99,1.03,2.89,3.01,2.93,5.23l.4,24.3c.05,2.94-1.05,4.97-1.78,7.55-.86,3.01-.17,6.17-2.38,9.04-.15.2.75.78.79.64Z"/>
        </g>
        <g>
          <path class="cls-5" d="M425.73,603.25c-2.91,6.48-4.26,16.01-1.05,18.24s11.46-2.7,16.07-6.3l25.36-19.83c1.06-.83,2.62-.95,3.64-.75.97.19,2.26,2.39,1.61,3.48l-13.32,11.77c-6.67,5.89-13.3,11.36-20.99,15.77-8.41,4.83-17.99,4.01-22.78-4.51-3.14-5.6-3.48-11.93-1.71-18.16,3.73-13.12,10.99-24.26,20.31-34.12,8.12-8.6,19.65-17.89,31.23-19.55,4.33-.62,7.91,1.79,8.69,6.1,1.89,10.4-8.76,24.19-16.78,31.62-.85.78-2.24,1.48-3.27,1.19-1.6-.45-2.2-2.05-2.32-3.16-.16-1.47.4-2.84,1.47-4.01,4.9-5.33,9.28-10.82,12.63-17.32.73-1.42,1.63-4.5.56-5.53-2.03-.69-4.49,1.13-6.28,2.27-14.58,9.24-25.99,27.05-33.07,42.81Z"/>
          <path class="cls-50" d="M575.7,574.17c-.85,2.68-2.99,3.81-5.35,3.42s-3.45-2.48-3.65-5.13c-.25-3.27,2.01-5.59,5.38-5.03,2.66.44,4.71,3.3,3.62,6.73Z"/>
          <g>
            <path class="cls-40" d="M744.56,601.44c-8.35,6.11-20.86,26.17-29.9,21.77-2.38-1.16-3.64-4.02-3.89-6.56l-1.37-13.96c-2.6.73-4.36,1.87-5.96,3.45l-18.11,17.9c-1.24,1.23-2.95,1.62-4.55,1.01-1.16-.44-2.04-1.97-2.12-3.7-.29-5.9,5.29-11.15,5.9-17.47l-14.85,14.39c-4.51,4.37-11.15,10.58-15.8,7.9-4.29-2.47-3.86-11.23-1.41-17.17l4.66-11.32c-5.58,2.16-8.47,7.99-15.52,8.91-2.96,11.25-14.88,23.61-24.16,19.42-7.28-3.29-7.48-11.5-6.03-19.32l-14.81,9.4c2.83,5.73,2.45,11.19.08,16.76-3.77,8.85-10.09,15.72-18.22,21.02-3.43,2.23-8.73,2.14-10.91-1.74-.86-1.54-.44-4.33.19-6.02l11.9-32.07c-2.65.97-3.84,2.72-5.47,4.28-4.68,4.48-11.55,9.92-16.15,7.65-1.01-.5-1.99-1.85-2.56-3.48-1.81-5.13,1.73-12.3.76-18.81-1.41.3-2.12,1.02-2.89,1.77l-15.69,15.48c-5.24,5.17-13.72,8.39-18.31,3.81-2.19-2.19-2.6-5.35-2.53-9.14l-12.02,8.01c-3.1,2.07-6.79,1.02-8.68-2.39-1.58-2.83-1.38-6.16-.65-9.42-1.07-.39-1.8.13-2.38.72l-8.84,8.95c-5.95,6.03-13.86,9.11-18.78,3.27-7.97-9.45,11.33-31.27,27.51-32.42,3.5-.25,5.95,1.41,7.09,5.03l3.74-2.25c1.78-1.07,3.68-.58,4.78.58,1.42,1.51,1.12,3.2.19,5-2.49,4.78-4.51,9.67-4.15,15.73,4.03-2.28,9.56-4.41,12.08-8.36l7.67-19.42c5.57-10.75,12.37-20.61,20.66-29.43,3.94-4.19,8.95-8.07,12.69-5.36s1.01,10.2-1.44,15.99c-4.04,9.52-9.81,17.8-16.54,25.67l-14.51,14.92c-2.2,2.26-1.64,6.59-.59,9.19,1.71,4.22,9.02-.69,12.98-4.87l16.64-17.58c1.44-1.52,3.2-3.52,5.4-3.54,4.41-.03,6.65,4.14,6.03,8.27-.87,5.78-1.8,11.3-1.25,17.41,4.14-1.82,6.37-5.21,9.47-8.08l15.52-18.09,9.57-24.1c2.89-6.48,5.96-15.97,11.26-13.82,1.66.67,2.43,2.58,2.36,4.56-.27,7.5-3.29,14.29-6.77,20.94l-8.83,16.9-5.74,14.54c9.47-3.79,17.03-9.66,24.66-15.78,3.18-2.55,6.31-4.92,10.06-6.41,5.28-2.11,10.41-.41,13.73,4.17,1.47,2.04,1.87,4.46,2.66,7.5,6.45-3.24,13.42-12.8,16.81-13.99,2.9-1.02,4.86,1.94,6.18,3.93,2.83,4.27,2.63,8.33-.12,12.49-3.06,4.62-7.45,12.55-5.23,14.68.46.44,1.81.27,2.49-.36l12.97-12.08,10.87-9.95c1.06-.97,2.46-1.31,3.71-.93,4.4,1.32,3.57,7.65,2.39,13.74,6.76-5.65,17.12-17.36,23.28-15.55s1.51,15.09,3.2,22.6c3.36-.69,6.02-2.85,8.38-5.24l13.37-13.59c2.04-2.07,4.62-4.66,7.58-4.97,3.44-.36,5.25,3.43,4.98,6.37l-1.35,14.76c-.2,2.17-.26,5,1.34,6.57l4.99,2.6c.33,2.37-1.49,4.01-3.23,4.63-5.45,1.93-9.81-5.28-10.03-12.58l-.41-13.33Z"/>
            <path class="cls-17" d="M633.98,599.99c1.5,11.64-8.63,22.28-12.99,20.42-4.13-1.76-.7-15.8,8.63-22.55.91-.66,2.23-.82,2.87-.5.76.38,1.33,1.46,1.48,2.63Z"/>
            <path class="cls-60" d="M588.27,619.04c8.9,3.87-2,22.85-10.89,27.02,2.72-9.66,6.5-18.42,10.89-27.02Z"/>
            <path class="cls-31" d="M493.11,603.32c-4.2,6.54-12.74,15.73-19.69,16.8.38-6.23,7.91-13.42,13.53-16.75,1.87-1.11,4.11-1.45,6.16-.05Z"/>
            <path class="cls-63" d="M547.13,573.82c-5.36,7.86-10.13,15.73-17.12,22.3,5.03-10.56,11.48-19.39,17.91-28.53.78-.81,1.25-1.75,2.58-1.75-.43,2.93-2.1,5.04-3.38,7.98Z"/>
          </g>
          <g>
            <path class="cls-36" d="M839.08,620.03c1.38-.26,2.59,1.1,2.64,1.76s-.69,1.87-1.71,2.18c-12.87,3.96-29.61,6.13-42.2,1.86-5.49-1.86-8.77-6.52-9.02-12.41-.06-1.41.07-2.96-.91-4.21-5.49,5.16-10.59,10.3-17.13,13.92-3.6,1.99-8.54,2.07-10.81-1.69-5.77-9.55,13.41-34.26,29.82-31.72,1.62.25,2.15,2.28,3.05,3.02,1.36,1.12,2.74-.63,3.47-1.5,1.53-1.8,3.76-1.27,5.16-.03,1.58,1.4,1.65,3.58.49,5.6-5.01,8.71-8.97,19.67.4,23.31,9.51,3.69,25.4,2.06,36.76-.09Z"/>
            <path class="cls-12" d="M780.69,607.13c-3.55,3.6-7.03,7.47-11.88,8.03,2.49-7.49,11.4-17.07,17.53-15.37-1.18,3.22-3.36,5.02-5.65,7.33Z"/>
          </g>
        </g>
        <g>
          <path class="cls-75" d="M927.72,835.94l1.24.54.51,23c.62,6.38.35,12.6-.81,18.64.02,1.05-.03,2.32.71,3.23l25.02-45.05c.86-1.55,2.26-2.58,3.99-2.74,5.7-.51,12.87-.77,15.48,2.25,1.49.96,1.53,2.71.12,5.23-8.18,14.88-16.26,29.8-24.23,44.76l.44,4.21,25.78,64.61,2.81,8.96c.51,1.86-.13,3.64-1.63,4.82-2.37,1.87-16.51,1.53-18.84-.44-.32-.27-.07-1.04.13-1.56l-22.01-54.71c-.86.21-1.37.85-1.52,1.92l-4.86,7.3.41,41.5c.74,8.19-10.54,8.19-16.25,6.75-2.12-.54-4.99-1.87-3.63-4.23l-1.53-126.55c-.04-2.96,2.16-4.89,4.58-4.85l10.63.16c1.53.02,2.56,1.36,3.47,2.25Z"/>
          <path class="cls-28" d="M958.44,966.41c.77,1.11,3.12,1.77,4.63,1.79l10.77.11c2.36.02,4.5-2.05,3.75-4.43l-2.78-8.83-25.77-64.59c-1-2.52-1-4.43.27-6.75l23.11-42.28c1.06-1.94,1.49-3.72,1.44-5.6.71-.77,1.34-1.94,2.72-1.9,2.26,3.56,1.39,7.53-.57,11.14l-23.53,43.28,25.3,62.58c1.75,4.33,3.34,8.28,4.04,12.78.53,4.54-2.17,8.43-6.65,8.44l-13.2.05c-1.88,0-4.29-1.14-4.88-2.95-.28-1.03,1.02-2.1,1.36-2.82Z"/>
          <path class="cls-59" d="M936.43,911.7c-1.05,3.39.22,6.97-2.94,11.6l.34,41.01c.04,4.83-3.47,8.06-7.98,8.1l-11.13.11c-2.28.02-5.14-1.14-6.03-3.27-.79-1.89.9-3.3,1.88-4.32.79,1.05,1.55,2.64,3.2,2.92,4.2.72,8.73,1.01,12.87-.22,2-.59,2.59-3.32,2.58-5.24l-.31-41.86,5.89-9c.24-.37.78-.6,1.07-.52.23.06.45.44.55.68Z"/>
          <path class="cls-77" d="M928.65,878.12l-.93-42.19c.37-.72,2.14-1.97,2.75-1.25,1.62,1.93,1.79,4.81,1.8,7.29l.12,22.59-2.22,10.52c-.19.89-1.63,2.22-1.53,3.04Z"/>
        </g>
        <g>
          <path class="cls-42" d="M571.57,996.8c1.32,1.9,4.13-.69,4.8.82,1.14,2.57-5.04,6.71-9.58,4.9-3.39-1.35-4.44-5.33-3.36-8.68,1.31-4.04,4.53-7.05,8.48-8.64,5.72-2.31,16.4-4.38,18.09-1.79.54.82.5,1.97.22,2.95l-5.01,17.64,11.86-15.63c1.19-1.57,2.59-2.3,4.53-2.08,1.49.17,3.63,1.52,3.19,3.74l-3.51,17.51c4.09-2.36,6.13-6.44,8.72-9.92,2.91-3.93,3.88-8.12,3.8-12.88-.05-2.66,2.93-4.32,4.86-3.94,6.11,1.22,2.68,10.87-1.94,16.76l-11.03,14.06c-3.21,4.09-8.2,6.82-11.36,3.56-1.04-1.08-1.86-2.9-1.46-4.75l2.31-10.87-8.76,11.17c-3.49,4.45-7.96,8.22-11.4,5.36-1.46-1.21-1.46-3.31-.78-5.31l7.81-22.89c-4.36-.65-9.08,1.72-10.79,5.87-.44,1.07-.18,2.33.31,3.03Z"/>
          <g>
            <path class="cls-40" d="M638.13,1023.61c-.59,1.65-2.28,1.8-3.39,1.8-.92,0-3.42-.69-3.08-1.86l3.3-11.58c-5.29,2.95-4.9,7.36-8.36,11.43-2.81,3.3-7.8,4.67-11.33,1.69-1.53-1.29-1.45-3.63-.83-5.5.47-1.4,1.73-2.91,3.71-3.48l5.25-1.5c.62-.18,1.13-.47,1.35-.74.45-.54.55-1.4.05-1.79-2.11,2.24-5.35,3.33-7.67,1.34-1.73-1.48-1.48-4.46-.91-6.54l2.64-9.65c.67-2.44,3.38-3.32,5.65-2.91,5.13.93-1.96,7.43-1.36,14.54,4.68-3.28,5.5-8.56,7.93-12.93,1.12-2.01,5.17-2.11,7.04-.87-2.14,5.01-4.61,9.36-5.56,14.49,8.14-5.16,6.34-13.89,10.08-15.3,2.1-.79,3.66.57,5.15,1.34,2.57-1.17,6.65-2.3,8.4.86,1.99,3.59.86,8.02-.8,11.59-2.5,5.37-7.98,7.35-13.53,5.13l-3.72,10.43Z"/>
            <path class="cls-81" d="M646.52,1008.79c-.85.7-2.75-.21-2.65-1.09.38-3.45,2.76-9.1,5.34-8.35,2.83.83,1.17,6.27-2.69,9.43Z"/>
            <path class="cls-58" d="M623.05,1017.95c.08,1.12-2.18,4.08-3.58,2.8-1.07-.98,1.56-3.55,3.58-2.8Z"/>
          </g>
          <g>
            <path class="cls-53" d="M664.59,1009.11c4,3.12,8.86-4.56,10.8-3.36,2.42,1.5-4.3,10.32-13.13,8.49-3.29-.68-5.71-3.51-5.36-7.05.62-6.14,5.03-11.56,11.03-12.87,2.7-.59,6.46.25,6.92,3.11.95,5.87-4.96,10.05-10.29,9.42-.58.28-.52,1.83.03,2.26Z"/>
            <path class="cls-23" d="M670.21,998.68c-.15,2.5-2.04,4.8-5.02,5.22.75-4.58,5.13-6.99,5.02-5.22Z"/>
          </g>
        </g>
        <g>
          <path class="cls-83" d="M520.55,834.17c.47-.12,1.21-.22,1.35.1,3.74,8.84,7.94,19.6,10.85,28.71,1,1.73,1.15,3.3.47,4.7l4.26,10.53,16.76-43.45c.68-1.76,2.08-2.93,3.91-2.93h11.29c1.86,0,3.18.87,3.84,2.35,1.5.97,1.57,2.83.22,5.57l-25.47,65.01-.02,57.75c.14,7.48-9.47,7.67-15,6.99-1.95-.24-6.45-.99-5.23-3.44l-.41-6.61-.06-55.12-26.55-68.44c-.89-2.31,1.31-4.38,3.1-4.39l12.33-.06c1.96-.01,3.74,1.13,4.35,2.72Z"/>
          <path class="cls-47" d="M527.79,966.07c2.85,3.24,10.16,2.43,16.12,1.6,1.76-.93,2.87-2.96,2.87-5.17l.07-57.99,25.32-64.7c.8-2.04,1.22-3.83,1.11-5.61l3.68-2.38c1.44,2.48,1.56,5.51.44,8.39l-25.98,67.18-.15,56.95c0,3.62-2.23,6.46-5.33,7.81-7.3.57-17.9,1.68-19.36-2.69-.39-1.16.4-2.59,1.19-3.38Z"/>
          <path class="cls-13" d="M533.22,867.68l-12.67-33.51,2-2.04c.64.47,1.58,1.13,1.95,2.13l12.04,32.09c.13.36-.08,1.21-.1,1.52-.02.23-.38.64-.73.16l-.64-.88c-.36-.5-.83-.8-1.38-.66-.33.08-.49.75-.48,1.2Z"/>
        </g>
        <g>
          <path class="cls-26" d="M358.79,624.31l-41.02-.74-64.87-.87c-2.17-.03-4.86-.3-4.86-3.12l-.09-68.47c0-2.41.94-4.53,3.79-4.46l108.21,2.5c2.37.05,3.78,1.57,3.77,3.79l-.16,66.66c0,1.62-.12,2.54-.97,3.5-.99,1.11-2.07,1.24-3.8,1.21Z"/>
          <path class="cls-52" d="M339.84,592.29l-.04-7.97,14.86.21.06,28.66-6.66.05-.5-4.94c-1.76,4.24-5.23,5.9-9.53,5.84-12.01-.17-12.98-12.08-13.17-23.89-.11-6.71-.08-13.25,1.3-19.63,1.64-7.55,7.18-11.92,14.86-11.4,4.62.31,9.06,1.9,11.2,6.43,1.52,3.21,2.14,6.87,1.87,10.5l-8.74-.08c.09-5.07-1.92-9.31-5.69-8.87-5.87.69-5.36,12.64-5.36,20.62,0,7.15.09,17.51,5.32,18.32s6.98-6.72,6.17-13.74l-5.94-.1Z"/>
          <path class="cls-62" d="M311.57,559.79l8.98-.03-.26,39.66c-.03,4.51-1.54,9.39-5.32,11.92-4.92,3.3-12.08,3.13-17.12.11-3.86-2.31-5.68-6.92-5.7-11.44l-.13-40.65,9.07.22.12,40.37c0,2.06,1.33,3.87,2.5,4.73,1.53,1.14,3.69,1.28,5.3.02,1.79-1.39,2.15-3.79,2.45-6.04l.12-38.89Z"/>
          <g>
            <polygon class="cls-14" points="278.65 601.3 267.37 601 265.39 612.04 256.01 611.93 267.29 559.11 278.64 559.15 289.81 612.27 280.42 612.27 278.65 601.3"/>
            <polygon class="cls-7" points="277.29 592.05 269.03 592 273.3 569.7 277.29 592.05"/>
          </g>
        </g>
        <g>
          <path class="cls-76" d="M946.78,667.42c1.39.06,2.05,1.29,1.99,3.69.67,4.59,1.43,14.31-5.15,14.16-6.79-.16-13.51,0-20.14.49l-.41.95,1.39,109.79c.91,8.44-15.73,7.86-19.71,4.42-.3-.26.09-1.05.41-1.53-.79-2.04-.65-4.49-.68-7.18l-1.44-103.9c-.02-1.47-.05-2.27-.54-3.2-.63.38-1.39.31-2.3-.23l-20.95-.39c-2.24-.47-4.23-1-3.43-3.66l.21-11.63c.12-2.16,1.93-4.11,4.64-4.08l62.13.62c1.45.01,3.18.94,3.99,1.68Z"/>
          <path class="cls-8" d="M905.16,799.4c1.04,2.7,9.04,2.97,14.39,2.04,2.45-.43,3.72-2.34,3.69-4.93l-1.41-109.42c-.02-1.93,1.21-2.93,2.88-2.94l18.85-.09c1.38,0,2.67-.54,3.33-1.37,1.26-1.59,1.29-11.05-.11-15.26.84-.67,2.17-1.45,2.93-.94,3.05,2.07,2.86,10.79,2.15,16.66-.41,3.45-3.25,5.53-6.53,5.58l-19.23.28,1.7,109.92c.06,4.17-2.68,7.25-6.43,7.26l-13.29.02c-2.52,0-4.91-1.69-5.78-3.97l2.84-2.83Z"/>
          <path class="cls-73" d="M902.5,685.11c-.84,1.58-2.74,3.1-4.88,3.08l-17.08-.17c-2.57-.03-5.04-1.22-6.12-3.49-.72-1.52.92-2.63.97-3.64l.63-11.67.18,11.06c0,1.79,1.31,2.97,3.1,3l21.01.39c1.08.02,1.85.82,2.17,1.44Z"/>
        </g>
        <g>
          <path class="cls-66" d="M992.77,621.76c.1,5.36,1.69,12.19-3.27,12.13l-38.29-.43-61.49-.46c-1.86-.01-3.23-1.74-3.25-3.49l-.18-15.55-.33-45.72c-.01-1.67,1.45-3.17,3.14-3.14l28.39.42,31.94.49,32.68.59,6.8.25c1.59.06,2.98,1.02,3,2.61l.38,26.55.48,25.74Z"/>
          <g>
            <path class="cls-74" d="M914.43,604.11c-.36-5.58,2.78-9.93,6.51-13.79,5.42-5.6,4.1-11.47,1.46-11.81-2.06-.26-3.17,1.91-3.33,5.04-1.06.94-3.2.56-4.72.28-.14-2.3-.12-5.13,1.7-7.13,2.74-3.01,8.89-3.33,11.6.03,3.8,4.7,2.05,11.31-1.71,15.48-2.01,2.23-4.24,3.7-5.45,6.91l9.4.33-.02,4.75-15.43-.07Z"/>
            <path class="cls-71" d="M976.17,603.77c-.75,1.1-3.7.96-5.23.51.44-8.25,3.11-15.78,7.15-23.49l-10.43-.25v-5.05s15.47.15,15.47.15c.06,1.45.56,3.34-.04,4.58-3.61,7.41-5.81,14.92-6.91,23.55Z"/>
            <path class="cls-65" d="M957.53,617.75c1.31.01,2.3-.12,3.11.43.67.45.82,1.61.9,2.65.16,2.22-.44,3.79-2.49,4.19-1.43.28-3.58-.02-4-2.1-.95-4.68-.51-9.12,2.95-9.28,1.13-.05,2.3.22,3.08,1.32.29.41.31.98.22,1.29-.51,1.74-2.35-1.33-3.69-.61-.86.46-.8,2.1-.07,2.11Z"/>
            <path class="cls-68" d="M947.23,623.54c-.47-.77-.06-1.32.33-1.43.8-.22,1.78,1.6,2.93,1.17.52-.19,1.08-1.63.62-2.33-.76-.14-2.12.38-3.19-.37-.66-.46-1.12-1.5-1.23-2.8-.18-2.14.84-3.85,2.76-4.17,1.76-.29,3.8.86,3.84,3.01l.1,4.9c.03,1.56-.83,2.77-1.93,3.25-1.39.6-3.15.53-4.22-1.23Z"/>
            <path class="cls-70" d="M965.65,617.61l2.93.49c.78.13,1.08,1.57,1.2,2.81.19,1.99-.62,3.61-2.21,4.1-1.86.57-4.01-.17-4.41-2.38-.82-4.5-.24-8.71,2.82-8.95,1.44-.12,3.38.59,3.45,2.24.03.82-1.27.95-1.55.63-.24-.28-.65-.87-1.24-1.17-.97-.48-2.3,2-1,2.22Z"/>
            <path class="cls-67" d="M914.6,624.54c-2.96,1.03-1.96-2.12-3.78-2.55-.78-.18-1.83-.21-2.04.81l-.28,1.3c-.08.39-.88.75-2.14.44l2.61-10.81c.17-.7,2.58-.52,2.81.34l2.81,10.49Z"/>
            <path class="cls-10" d="M902.15,614.91c-2.48-.48-2.33,7.89-.42,8.19s1.34-3.58,3.35-2.51c.43.23.46,1.27.29,1.9-.48,1.79-1.68,2.33-3.16,2.34-1.31.01-3.02-.27-3.52-1.9-.76-2.46-.77-5.33-.04-7.79.49-1.64,2.18-2.09,3.42-1.98,1.53.13,2.82.65,3.26,2.44.13.51.2,1.38-.12,1.57-1.59.93-1.96-2.04-3.07-2.25Z"/>
            <path class="cls-64" d="M941.7,613.82c1.47,10.51-1.66,13.56-1.76,10.36l-.06-2.16c-.02-.66.11-2.04-.37-2.27s-1.87-.25-2.36-.04c-.52.23-.35,1.67-.35,2.32v2.15c0,.63-1.68.86-1.7.31l-.33-9.75c-.03-.93.54-1.21,1.15-1.21,1.73.02.17,3.46,1.25,4.23.44.31,1.86.33,2.3-.02s.3-1.58.35-2.33l.09-1.53c.02-.39,1.42-.52,1.79-.08Z"/>
            <path class="cls-1" d="M977.61,620.95c.3,2.35-.92,3.83-2.61,4.3-1.92.54-4.61-1.06-3.69-2.83.69-1.3,2.13.66,2.82.83.9.22,1.5-1.33,1.36-2.05-.12-.6-.22-2.13-1.48-1.99-.7.08-1.54,1.88-2.92.98l.24-6.02,5.41-.06c.37,0,.46,1.14.22,1.37-.54.52-1.87.1-3.65.48-.49.1-.62,1.46-.2,1.52,1.24.14,2.41-.02,3.42.67.63.43.93,1.73,1.07,2.8Z"/>
            <path class="cls-91" d="M933.24,623.09c.45.04.39,1.51.04,1.54-2.08.2-3.69.3-5.73-.16l-.22-10.63c.22-.42,1.65-.46,1.9-.05l.25,8.83c1.27.51,2.23.32,3.75.47Z"/>
            <g>
              <path class="cls-79" d="M911.84,604.18l-5.35-.13c-1.59-4.75.08-9.92-2.07-11.71-.95-.79-2.24-.98-4.06-.73l-.08,12.39-5.23.1-.3-29.7,9.6.05c4.27.02,6.59,3.17,6.63,7.28.03,3.07-.49,5.98-3.15,7.64,4.55,3.24,1.8,9.23,4.01,14.8Z"/>
              <path class="cls-32" d="M905.87,582.54c.14,2.11-.46,3.66-1.57,4.36-1.03.65-3.81,1.02-4.14-.02l-.08-7.91c2.86-.83,5.58.41,5.79,3.58Z"/>
            </g>
            <g>
              <path class="cls-87" d="M965.29,581.46c1.58,10.16,1.94,23.98-7.34,23.77-3.65-.08-6.44-2.4-7.13-6.42-.97-5.69-1.12-11.64-.21-17.34.66-4.12,3.62-6.54,7.36-6.61s6.68,2.53,7.32,6.6Z"/>
              <path class="cls-88" d="M960.34,581.55c.86,7.44,1.55,19.38-2.39,19.37-1.21,0-2.23-.99-2.38-2.48-.55-5.68-.64-11.33-.08-17.01.16-1.58,1.21-2.46,2.46-2.45s2.2.97,2.39,2.56Z"/>
            </g>
            <g>
              <path class="cls-55" d="M947.41,597.98c-.61,4.51-3.34,6.74-7.25,6.87-3.6.12-6.68-2.22-7.33-6.31-.93-5.81-1.09-11.93,0-17.66.75-3.92,3.28-6.06,6.75-6.2,3.68-.15,6.67,1.97,7.5,5.99,1.14,5.54,1.12,11.42.33,17.31Z"/>
              <path class="cls-46" d="M942.37,581.14c.77,7.33,1.51,19.38-2.18,19.54s-3.23-11.96-2.65-19.46c.11-1.42,1.09-2.44,2.09-2.54,1.41-.14,2.57.8,2.75,2.47Z"/>
            </g>
          </g>
        </g>
        <g>
          <path class="cls-83" d="M623.95,663.64c1.4-.3,2.12.63,2.18,2.81l3.71,48.04c1.13,9.75,1.81,19.21,1.76,29.03,0,.95.06,1.25.81,1.13l12.12-41.88c.58-2.02,1.77-3.45,3.63-3.67,1.63-.19,3.83,1.13,4.38,3.19.48-.08,1.22-.1,1.33.22,2.3,7.08,4.77,16.08,6.33,23.35.78,2.24,1.03,3.59.3,5.79l4.51,14.43,4.31-46.23,2.77-32.52c.22-2.64,2.05-4.57,4.76-4.55l10.19.09c1.3.01,2.48.83,2.91,1.9,1.37.1,2.02,1.03,1.96,2.81l.02,2.67-12.14,126.22c-.44,1.69-1.36,3.29-2.87,4.23-2.21,1.38-16.95,1.49-18.96-.17-1.53-1.26-1.96-1.98-1.16-3.81l-.23-1.33-7.5-37.36-1.53-.85-9.62,38.74c-.85,3.27-2.22,4.45-5.34,5.39-1.97.6-14.87.17-15.93-1.44-.25-.39.03-1,.24-1.48-1.11-1.56-1.01-3.91-1.16-6.05l-3.73-53.79-5.75-71.66c-.25-3.06,2.06-5.26,4.76-5.17l10.38.34c1.03.03,2.02.71,2.56,1.57Z"/>
          <path class="cls-34" d="M656.57,795.4c.62,3.09,1.93,5.15,5.34,5.09l12.25-.19c2.67-.04,4.37-2.48,4.65-5.38l11.85-124.29c.22-2.32.02-3.99-.72-5.84,1.48,1.58,2.88-2.32,4.38-.81.42.42,1.28,1.57,1.18,2.61l-12.63,131.16c-.41,4.31-3.64,7.33-7.49,7.33h-14.17c-2.69.02-6.92-2.19-6.45-5.39.23-1.19,2.83-2.6,1.81-4.29Z"/>
          <path class="cls-28" d="M632.41,744.65c-.14.5-.34.68-.79.52-.58-.2-.24-.88-.27-1.21l-2.72-29.36-3.67-47.63c-.1-1.23-.41-2.38-1-3.32,1.2-.28,1.99-1.2,3.56-1.21,1.26,2.04,1.86,4.37,2.04,6.88l4,55.6-1.11,16.35c-.06.9-1.21,2.66-.03,3.39Z"/>
          <path class="cls-34" d="M649.06,758.04c-1.21,2.15.38,5.34-1.07,11.25l-7.24,29.38c-.9,3.66-3.73,6.17-7.62,6.14l-11.68-.08c-2.39-.02-5.19-.78-6.46-2.85-.8-1.3.58-3.15,1.9-3.48.6.85,2.41,1.68,3.46,1.69l11.42.05c2.98.01,4.37-2.14,5.05-4.85l10.64-42.86c1.16,2.06,1.26,3.86,1.61,5.6Z"/>
          <path class="cls-9" d="M660.5,731.66l-7.96-29.36c.54-.55,1.56-2.2,2.41-1.68,1.41.87,2.06,2.82,2.47,4.32l4.85,17.83c.49,1.78.68,4.61.29,6.42-.52.69-2.45,1.28-2.06,2.47Z"/>
        </g>
        <g>
          <path class="cls-83" d="M323.01,833.03l1.28.82c.96,5.77,1.37,14.99-5.47,16.7-6.35-.15-12.59.1-18.72.74l-.44,1.01-.79,110.15c1.05,8.46-13.89,8.41-18.81,6.14-1.41-.65-3.21-1.52-2.11-3.14l1.07-110.57c.02-1.97-.07-3.22-1.05-4.45l-1.28.46c-2.43.14-19.44-.3-20.87-.86-2.16-.84-3.48-1.41-2.62-3.92l.1-12.17c.11-2.22,1.79-3.95,4.5-3.94l60.53.25c2.23,0,3.76,1.23,4.66,2.79Z"/>
          <path class="cls-59" d="M277.95,965.44c2.85,3.69,8.37,3,14.74,2.74,3.15-.13,4.93-2.42,4.96-5.76l.77-109.78c.01-1.95,1.33-3.06,3.08-3.08l16.89-.21c5.96-.08,5.14-8.52,4.61-16.31-.08-1.15,1.05-2.17,1.86-2.23,3.77-.27,3.58,11.32,2.3,18.12-.5,2.64-3.32,4.78-5.93,4.87l-18.25.64-.94,110.42c-.04,4.65-3.53,7.88-7.61,7.83l-11.8-.13c-2.81-.03-5.59-1.8-6.64-4.33l1.96-2.79Z"/>
          <path class="cls-19" d="M277.98,850.42c-1.31,2.45-3.77,3.43-6.72,3.38l-13.48-.24c-2.59-.05-5.13-1.27-6.08-3.77-.49-1.28.98-2.61,1.03-3.62l.58-12.25.39,12.7c.04,1.81,3.12,2.55,4.64,2.57l17.18.15c1.11,0,1.95.44,2.46,1.07Z"/>
        </g>
      </g>
    </g>
  </g>
</svg>