<svg xmlns="http://www.w3.org/2000/svg" viewBox="0 0 250 220" role="img" aria-label="Free shipping icon">
  <path d="M24 101H63M10 121H63M26 141H63" fill="none" stroke="#d71919" stroke-width="8" stroke-linecap="round"/>
  <rect x="67" y="73" width="95" height="69" rx="10" fill="#d71919"/>
  <path d="M162 92H196L221 117V143H162V92Z" fill="#fff" stroke="#1a1a1a" stroke-width="4.5" stroke-linejoin="round"/>
  <path d="M162 92H196L221 117V143H162Z" fill="none" stroke="#1a1a1a" stroke-width="4.5" stroke-linejoin="round"/>
  <path d="M176 101H193L207 117H176V101Z" fill="#fff" stroke="#1a1a1a" stroke-width="3.5" stroke-linejoin="round"/>
  <circle cx="101" cy="157" r="17" fill="#fff" stroke="#1a1a1a" stroke-width="4.5"/>
  <circle cx="101" cy="157" r="6.5" fill="#1a1a1a"/>
  <circle cx="191" cy="157" r="17" fill="#fff" stroke="#1a1a1a" stroke-width="4.5"/>
  <circle cx="191" cy="157" r="6.5" fill="#1a1a1a"/>
  <path d="M93 105C98 105 102 109 105 117C109 109 114 105 119 105C124 105 128 109 131 117C135 109 139 105 145 105C149 105 153 108 156 114" fill="none" stroke="#fff" stroke-width="7" stroke-linecap="round" stroke-linejoin="round"/>
</svg>
