<svg xmlns="http://www.w3.org/2000/svg" viewBox="0 0 220 220" role="img" aria-label="Satisfaction guaranteed icon">
  <path d="M108 44C118 24 145 31 145 54C145 72 124 85 108 97C92 85 71 72 71 54C71 31 98 24 108 44Z" fill="#d71919"/>
  <path d="M47 150C64 139 81 135 103 140L117 144C128 147 140 146 152 140" fill="none" stroke="#1a1a1a" stroke-width="4.5" stroke-linecap="round"/>
  <path d="M74 115L97 105H143C156 105 166 110 170 120L123 138H89C81 138 75 131 75 123C75 120 75 117 74 115Z" fill="#fff" stroke="#1a1a1a" stroke-width="4.5" stroke-linecap="round" stroke-linejoin="round"/>
  <path d="M88 128C102 126 115 128 129 133" fill="none" stroke="#1a1a1a" stroke-width="3.5" stroke-linecap="round"/>
</svg>
